<svg width="38" height="26" viewBox="0 0 38 26" fill="none" xmlns="http://www.w3.org/2000/svg">
<path fill-rule="evenodd" clip-rule="evenodd" d="M37.3062 0.0480118C37.832 0.217042 38.1212 0.780299 37.9521 1.30608C37.4653 2.82031 36.5107 3.86551 35.6204 4.72522C35.4178 4.9208 35.2229 5.1037 35.0362 5.27886C34.3581 5.91517 33.7887 6.44939 33.3585 7.11845C32.8249 7.94835 32.3627 8.61265 31.9323 9.06793C31.5175 9.50669 30.9442 9.95416 30.1875 9.91012C29.4825 9.86908 28.9507 9.40934 28.5782 9.02938C28.2197 8.66384 27.8188 8.16414 27.374 7.60966C27.3235 7.54664 27.2724 7.48292 27.2207 7.41861C26.7764 6.86577 26.3634 6.1402 25.9916 5.46957C25.9347 5.36695 25.8786 5.26521 25.8231 5.16457C25.4977 4.57493 25.1931 4.0228 24.8795 3.55048C24.4938 2.96968 24.205 2.68708 24.0194 2.59343C23.9846 2.57586 23.9654 2.57157 23.9599 2.57059C23.9584 2.57032 23.9575 2.57019 23.9569 2.57014C23.9559 2.57007 23.9556 2.5702 23.9549 2.57032C23.9528 2.57066 23.9353 2.57361 23.9001 2.59197C23.8636 2.61101 23.8076 2.6469 23.7334 2.71284C23.1332 3.24623 22.4674 4.25531 21.7492 5.49663C21.5147 5.90186 21.2736 6.33396 21.0319 6.76724C20.5782 7.58032 20.1223 8.39757 19.7033 9.04916C19.1843 9.85641 18.5818 10.5062 17.8326 10.746C16.9653 11.0235 16.2278 10.6676 15.7169 10.1937C15.2346 9.74638 14.8449 9.10827 14.5205 8.47243C14.1876 7.81991 13.877 7.07417 13.5848 6.34778C13.5101 6.16203 13.4369 5.97878 13.365 5.79876C12.8465 4.50062 12.3953 3.3709 11.922 2.69116C11.7853 2.49493 11.6872 2.39737 11.6314 2.35034C11.5816 2.38938 11.5049 2.46162 11.4003 2.59184C11.2663 2.75854 10.965 3.26015 10.5189 4.02762C10.4575 4.13325 10.3942 4.24237 10.3293 4.35424C9.95084 5.0067 9.51806 5.75286 9.08864 6.4484C8.59427 7.24916 8.0651 8.0483 7.59609 8.57555C7.38348 8.81456 7.07571 9.12489 6.70316 9.28216C6.49733 9.36906 6.16998 9.45177 5.80359 9.33258C5.42262 9.20864 5.19682 8.93171 5.07639 8.69759C5.04227 8.63127 5.00616 8.56093 4.96817 8.48695C4.46144 7.50015 3.62146 5.86438 2.75069 4.43395C2.28053 3.66163 1.82284 2.98521 1.42269 2.51297C1.22131 2.27532 1.06039 2.12051 0.944112 2.03305C0.920484 2.01527 0.901805 2.0026 0.88788 1.9938C0.388435 1.93801 0.000131561 1.51436 0.000131561 1.00003C0.000131561 0.44774 0.447847 2.52105e-05 1.00013 2.52105e-05C1.48645 2.52105e-05 1.88583 0.238761 2.14637 0.434739C2.42934 0.647596 2.69944 0.92603 2.94856 1.22003C3.4494 1.8111 3.97062 2.59166 4.45904 3.39399C5.18399 4.58487 5.88397 5.90321 6.39347 6.88645C6.68362 6.50222 7.0233 5.98658 7.38685 5.39774C7.80048 4.72776 8.21747 4.00891 8.59662 3.35527C8.6622 3.24222 8.72665 3.13111 8.78975 3.02255C9.1911 2.33207 9.5872 1.65517 9.84136 1.33892C10.3351 0.724614 11.0291 0.20205 11.9071 0.337318C12.689 0.457784 13.2231 1.05979 13.5633 1.54828C14.18 2.43404 14.7293 3.81529 15.2266 5.066C15.2989 5.24784 15.3701 5.42693 15.4403 5.60133C15.7312 6.32447 16.0133 6.99755 16.302 7.56353C16.5993 8.1462 16.8602 8.52632 17.077 8.72736C17.1564 8.80104 17.2075 8.82928 17.2291 8.83903C17.3049 8.81115 17.5823 8.64991 18.0211 7.96752C18.4095 7.36334 18.8072 6.64966 19.2361 5.88015C19.4848 5.43373 19.7441 4.96852 20.0181 4.495C20.7206 3.28089 21.5301 1.99525 22.4048 1.21792C22.757 0.904919 23.1658 0.672739 23.6323 0.596507C24.108 0.518759 24.5464 0.619177 24.9204 0.807855C25.6082 1.15493 26.1402 1.83353 26.5456 2.44417C26.9088 2.99116 27.2592 3.62681 27.5815 4.21139C27.6354 4.30921 27.6886 4.4056 27.7408 4.4999C28.1239 5.19096 28.4592 5.76708 28.7796 6.1657C28.8265 6.22405 28.8721 6.28085 28.9165 6.33614C29.3875 6.9227 29.722 7.33927 30.0062 7.62909C30.138 7.76358 30.2284 7.83733 30.2833 7.87691C30.3273 7.84282 30.3918 7.78618 30.479 7.69393C30.7675 7.3888 31.1414 6.86857 31.6762 6.03681C32.2542 5.13794 33.0571 4.38787 33.7574 3.73371C33.9224 3.57954 34.0818 3.4307 34.2311 3.28649C35.0621 2.48406 35.7175 1.72243 36.0481 0.693969C36.2171 0.168186 36.7804 -0.121018 37.3062 0.0480118ZM30.2098 7.92489C30.2099 7.92479 30.2113 7.92408 30.2142 7.92304C30.2113 7.92447 30.2098 7.92499 30.2098 7.92489ZM0.856643 1.97624C0.85663 1.97616 0.858142 1.97677 0.861218 1.97832C0.858194 1.9771 0.856656 1.97632 0.856643 1.97624ZM11.7019 2.30768C11.7019 2.30843 11.6966 2.31113 11.6863 2.31351C11.6968 2.30812 11.7019 2.30693 11.7019 2.30768ZM37.8354 13.7134C38.1391 14.1747 38.0113 14.7948 37.5499 15.0985C37.3481 15.2313 37.0622 15.5317 36.6944 16.0472C36.3402 16.5437 35.9705 17.1513 35.5763 17.8159C35.5004 17.944 35.4232 18.0749 35.3449 18.2077C34.6465 19.392 33.856 20.7327 33.0453 21.5865C33.0468 21.5849 33.0463 21.5856 33.0437 21.5892C33.0335 21.6031 32.9911 21.6609 32.916 21.7928C32.8315 21.9409 32.7338 22.1317 32.6224 22.3599C32.5388 22.531 32.4392 22.7414 32.3339 22.964C32.1865 23.2755 32.0277 23.6108 31.886 23.8956C31.6358 24.3979 31.339 24.953 31.0276 25.335C30.8869 25.5075 30.6351 25.7845 30.2704 25.9198C30.0612 25.9975 29.7942 26.0356 29.5072 25.9561C29.2247 25.8778 29.0188 25.7121 28.8799 25.5495C28.5193 25.1276 28.082 24.392 27.7089 23.7075C27.3225 22.9985 26.9508 22.2426 26.7228 21.7174C26.4743 21.1449 26.2274 20.4098 25.9886 19.6986C25.9678 19.6367 25.9471 19.5751 25.9264 19.5137C25.6589 18.7187 25.3958 17.9533 25.1185 17.3357C24.9805 17.0283 24.8509 16.7848 24.7313 16.6065C24.7155 16.5828 24.7002 16.561 24.6857 16.541C24.6827 16.5449 24.6796 16.549 24.6764 16.5531C23.87 17.6148 23.2136 18.9206 22.4964 20.3475C22.4422 20.4553 22.3877 20.5638 22.3327 20.673C21.5724 22.1823 20.7318 23.8043 19.6003 25.1283C19.341 25.4317 18.9543 25.5845 18.5518 25.5299C18.233 25.4866 17.9961 25.3255 17.8659 25.2233C17.5934 25.0093 17.3463 24.6938 17.1417 24.4014C16.7112 23.7861 16.2248 22.9112 15.7699 22.0362C15.3096 21.151 14.8598 20.223 14.5036 19.4828C14.46 19.3923 14.418 19.3048 14.3776 19.2207C14.2514 18.9582 14.1408 18.7282 14.0481 18.5385C13.9871 18.4135 13.9361 18.3108 13.8954 18.2312C13.8751 18.1915 13.8586 18.16 13.8456 18.1359C13.8392 18.124 13.8341 18.1149 13.8304 18.1083C13.827 18.1024 13.8255 18.0997 13.8255 18.0997L13.8256 18.0999C13.4209 17.4339 13.101 16.8698 12.8542 16.4294C12.629 16.8817 12.3334 17.4438 11.9347 18.0999C11.6436 18.579 11.3972 19.235 11.1503 19.9885C11.0902 20.1719 11.0292 20.3643 10.9672 20.5599C10.7918 21.1133 10.6083 21.6918 10.4149 22.1634C10.2811 22.4898 10.1182 22.8291 9.9105 23.1166C9.70837 23.3964 9.39059 23.7291 8.91509 23.868C8.3983 24.019 7.9129 23.8812 7.52582 23.6402C7.16072 23.4128 6.83155 23.0664 6.52383 22.6613C6.33641 22.4146 6.11107 22.1083 5.85679 21.7628C5.22064 20.8982 4.40329 19.7874 3.5449 18.7459C2.94838 18.022 2.36135 17.3688 1.83859 16.89C1.57728 16.6506 1.35007 16.4715 1.1613 16.3514C1.06806 16.2921 0.993402 16.2531 0.936824 16.2288C0.883526 16.2059 0.857466 16.2009 0.855434 16.2005C0.855273 16.2005 0.855263 16.2005 0.855402 16.2005C0.308933 16.1205 -0.0692715 15.6127 0.0106602 15.0663C0.0905919 14.5198 0.598391 14.1416 1.14486 14.2215C1.55158 14.281 1.92499 14.4668 2.23492 14.664C2.55589 14.8682 2.87776 15.1296 3.18956 15.4152C3.81305 15.9864 4.46847 16.7218 5.0883 17.4739C5.98452 18.5613 6.86807 19.762 7.50994 20.6342C7.74985 20.9602 7.956 21.2403 8.11643 21.4515C8.22597 21.5957 8.31789 21.7012 8.39207 21.7775C8.44352 21.6818 8.50117 21.5591 8.56448 21.4047C8.7244 21.0146 8.86919 20.5581 9.03464 20.0364C9.1021 19.8237 9.17299 19.6001 9.24975 19.3658C9.49809 18.6078 9.8035 17.7557 10.2256 17.0612C10.7488 16.2001 11.0745 15.5223 11.3138 15.0243C11.3205 15.0104 11.3271 14.9967 11.3337 14.9831L11.3377 14.9747C11.45 14.741 11.5672 14.4972 11.6806 14.3107C11.739 14.2147 11.823 14.0886 11.9362 13.9722C12.0472 13.8581 12.2503 13.687 12.5537 13.6217C13.2422 13.4736 13.6741 13.9791 13.7745 14.0992C13.9316 14.2869 14.0812 14.5367 14.2179 14.7742C14.306 14.9273 14.4008 15.0969 14.5067 15.2864C14.763 15.7451 15.0845 16.3204 15.5347 17.0612C15.6511 17.2528 15.8944 17.7592 16.1751 18.3436C16.2179 18.4327 16.2615 18.5236 16.3057 18.6154C16.6614 19.3545 17.0996 20.2582 17.5444 21.1136C17.9449 21.8839 18.334 22.5823 18.6615 23.0793C19.3498 22.1089 19.9397 20.978 20.5465 19.7732C20.6065 19.6541 20.6668 19.5341 20.7273 19.4135C21.4222 18.0292 22.1598 16.5597 23.0838 15.3433C23.3565 14.9843 23.7104 14.6452 24.1737 14.4886C24.6917 14.3135 25.185 14.4192 25.5759 14.6595C25.9288 14.8765 26.194 15.1966 26.3926 15.4929C26.5985 15.8 26.7806 16.1547 26.9431 16.5166C27.2668 17.2377 27.5594 18.0956 27.822 18.8759C27.8399 18.9291 27.8577 18.9819 27.8753 19.0343C28.125 19.7771 28.3449 20.4313 28.5574 20.921C28.7567 21.3801 29.1005 22.0816 29.465 22.7504C29.6038 23.005 29.7386 23.2419 29.8641 23.4519C29.9363 23.3183 30.0137 23.1687 30.0956 23.0041C30.2417 22.7108 30.3717 22.4352 30.5028 22.1574C30.6068 21.9371 30.7114 21.7154 30.8251 21.4824C30.9426 21.2419 31.0623 21.0061 31.1785 20.8023C31.2849 20.6156 31.426 20.3874 31.595 20.2094C32.2377 19.5325 32.9062 18.4018 33.643 17.1558C33.7134 17.0368 33.7844 16.9166 33.8561 16.7958C34.2491 16.133 34.6574 15.4588 35.0663 14.8857C35.4616 14.3316 35.924 13.7743 36.4503 13.4279C36.9117 13.1242 37.5318 13.2521 37.8354 13.7134ZM29.426 24.1279C29.4259 24.1277 29.4282 24.1255 29.4327 24.1217C29.4282 24.1261 29.426 24.128 29.426 24.1279ZM8.24033 22.0045C8.24032 22.0044 8.24132 22.0034 8.24336 22.0017C8.24136 22.0037 8.24034 22.0045 8.24033 22.0045ZM12.2406 15.3826C12.242 15.3842 12.2435 15.3861 12.2451 15.388C12.2207 15.364 12.2186 15.3562 12.2406 15.3826Z" fill="black" fill-opacity="0.87"/>
</svg>
